<svg xmlns="http://www.w3.org/2000/svg" viewBox="0 0 128 128" width="128" height="128">
  <defs>
    <linearGradient id="bg" x1="0%" y1="0%" x2="100%" y2="100%">
      <stop offset="0%" style="stop-color:#3659b5;stop-opacity:1" />
      <stop offset="100%" style="stop-color:#764ba2;stop-opacity:1" />
    </linearGradient>
  </defs>
  
  <!-- Background -->
  <rect width="128" height="128" rx="20" fill="url(#bg)"/>
  
  <!-- EPO Letters -->
  <g fill="white" font-family="Arial, sans-serif" font-weight="bold">
    <!-- E -->
    <rect x="20" y="30" width="20" height="6"/>
    <rect x="20" y="30" width="6" height="68"/>
    <rect x="20" y="58" width="15" height="6"/>
    <rect x="20" y="92" width="20" height="6"/>
    
    <!-- P -->
    <rect x="50" y="30" width="6" height="68"/>
    <rect x="50" y="30" width="15" height="6"/>
    <rect x="50" y="58" width="15" height="6"/>
    <rect x="65" y="36" width="6" height="22"/>
    
    <!-- O -->
    <rect x="80" y="30" width="20" height="6"/>
    <rect x="80" y="92" width="20" height="6"/>
    <rect x="80" y="30" width="6" height="68"/>
    <rect x="94" y="30" width="6" height="68"/>
  </g>
  
  <!-- Position indicators -->
  <g fill="rgba(255,255,255,0.6)" font-size="8" font-family="monospace">
    <text x="25" y="115" font-size="10">left: 0px</text>
  </g>
  
  <!-- Drag cursor icon -->
  <g fill="white" opacity="0.8">
    <path d="M105 45 L115 50 L110 55 Z"/>
    <circle cx="108" cy="50" r="2"/>
  </g>
</svg> 