<svg xmlns="http://www.w3.org/2000/svg" viewBox="0 0 160 160" width="128" height="128">
  <defs>
    <!-- 더 진한 초록색 -->
    <linearGradient id="brightGreen" x1="0%" y1="0%" x2="100%" y2="100%">
      <stop offset="0%" style="stop-color:#5CB85C;stop-opacity:1" />
      <stop offset="100%" style="stop-color:#449D44;stop-opacity:1" />
    </linearGradient>
    
    <!-- 매우 밝은 Vue 색상 (중앙용) -->
    <linearGradient id="veryBrightVue" x1="0%" y1="0%" x2="100%" y2="100%">
      <stop offset="0%" style="stop-color:#8FDEBC;stop-opacity:1" />
      <stop offset="100%" style="stop-color:#6FD4A8;stop-opacity:1" />
    </linearGradient>
    
    <!-- 어두운 색상 -->
    <linearGradient id="darkGreen" x1="0%" y1="0%" x2="100%" y2="100%">
      <stop offset="0%" style="stop-color:#2F4F3F;stop-opacity:1" />
      <stop offset="100%" style="stop-color:#1F3F2F;stop-opacity:1" />
    </linearGradient>
    
    <!-- 흰색 (대비용) -->
    <linearGradient id="whiteColor" x1="0%" y1="0%" x2="100%" y2="100%">
      <stop offset="0%" style="stop-color:#ffffff;stop-opacity:1" />
      <stop offset="100%" style="stop-color:#f8f8f8;stop-opacity:1" />
    </linearGradient>
    
    <!-- 배경 그라데이션 -->
    <linearGradient id="bgGrad" x1="0%" y1="0%" x2="100%" y2="100%">
      <stop offset="0%" style="stop-color:#4FC08D;stop-opacity:1" />
      <stop offset="100%" style="stop-color:#41B883;stop-opacity:1" />
    </linearGradient>
    
    <!-- 그림자 -->
    <filter id="shadow" x="-50%" y="-50%" width="200%" height="200%">
      <feDropShadow dx="0" dy="4" stdDeviation="8" flood-color="#1F3F2F" flood-opacity="0.3"/>
    </filter>
  </defs>
  
  <!-- 메인 배경 -->
  <rect width="150" height="150" x="5" y="5" rx="30" fill="url(#bgGrad)" filter="url(#shadow)"/>
  
  <!-- 하이라이트 -->
  <rect width="145" height="145" x="7.5" y="7.5" rx="27" fill="rgba(255,255,255,0.1)"/>
  
  <!-- 중앙 심볼 -->
  <g transform="translate(80, 80)">
    
    <!-- 외부 점선 사각형 (더 크게, 여백 충분히) -->
    <rect x="-55" y="-55" width="110" height="110" rx="16" fill="none" stroke="url(#darkGreen)" stroke-width="6" stroke-dasharray="10,6" opacity="0.9"/>
    
    <!-- 중앙 밝은 초록 둥근 사각형 (매우 밝은 색으로) -->
    <rect x="-35" y="-35" width="70" height="70" rx="14" fill="url(#veryBrightVue)" stroke="none"/>
    
    <!-- 내부 어두운 사각형 (흰색으로 변경해서 대비 높이기) -->
    <rect x="-18" y="-18" width="36" height="36" rx="4" fill="url(#whiteColor)" stroke="url(#darkGreen)" stroke-width="2"/>
  
    <!-- 내부 대각선 화살표 (어두운 색으로 대비) -->
    <g fill="url(#darkGreen)">
      <path d="M5,-5 L18,-18 L14,-18 L14,-22 L22,-22 L22,-14 L18,-14 L18,-18 L5,-5 Z"/>
  </g>
  
    <!-- 4방향 화살표들 (더 밝은 Vue 색상으로) -->
    <g fill="url(#veryBrightVue)" stroke="url(#darkGreen)" stroke-width="2">
      <!-- 위쪽 화살표 -->
      <path d="M0,-70 L-12,-55 L-6,-55 L-6,-40 L6,-40 L6,-55 L12,-55 Z"/>
      
      <!-- 아래쪽 화살표 -->
      <path d="M0,70 L12,55 L6,55 L6,40 L-6,40 L-6,55 L-12,55 Z"/>
      
      <!-- 왼쪽 화살표 -->
      <path d="M-70,0 L-55,-12 L-55,-6 L-40,-6 L-40,6 L-55,6 L-55,12 Z"/>
      
      <!-- 오른쪽 화살표 -->
      <path d="M70,0 L55,12 L55,6 L40,6 L40,-6 L55,-6 L55,-12 Z"/>
  </g>
    
  </g>
  
</svg> 